PathFileType	4	(X/Y/Z)	s04c0101.trc
DataRate	CameraRate	NumFrames	NumMarkers	Units	OrigDataRate	OrigDataStartFrame	OrigNumFrames
200	200	4	51	mm	200	250	2000
Frame#	Time	racr			lacr			c7			jug			rlel			rdr			llel			ldr			s2			lic			ric			lasi			rasi			rpsi			lpsi			rgt			lgt			rth1			rth2			rth3			rth4			rlfc			rmfc			rsh1			rsh2			rsh3			rsh4			rlmal			rmmal			rcal			rtoe			rmt5			lth1			lth2			lth4			lth3			llfc			lmfc			lsh1			lsh2			lsh3			lsh4			llmal			lmmal			lcal			ltoe			lmt1			lmt5			SBIKE			LBIKE			RBIKE			
		X1	Y1	Z1	X2	Y2	Z2	X3	Y3	Z3	X4	Y4	Z4	X5	Y5	Z5	X6	Y6	Z6	X7	Y7	Z7	X8	Y8	Z8	X9	Y9	Z9	X10	Y10	Z10	X11	Y11	Z11	X12	Y12	Z12	X13	Y13	Z13	X14	Y14	Z14	X15	Y15	Z15	X16	Y16	Z16	X17	Y17	Z17	X18	Y18	Z18	X19	Y19	Z19	X20	Y20	Z20	X21	Y21	Z21	X22	Y22	Z22	X23	Y23	Z23	X24	Y24	Z24	X25	Y25	Z25	X26	Y26	Z26	X27	Y27	Z27	X28	Y28	Z28	X29	Y29	Z29	X30	Y30	Z30	X31	Y31	Z31	X32	Y32	Z32	X33	Y33	Z33	X34	Y34	Z34	X35	Y35	Z35	X36	Y36	Z36	X37	Y37	Z37	X38	Y38	Z38	X39	Y39	Z39	X40	Y40	Z40	X41	Y41	Z41	X42	Y42	Z42	X43	Y43	Z43	X44	Y44	Z44	X45	Y45	Z45	X46	Y46	Z46	X47	Y47	Z47	X48	Y48	Z48	X49	Y49	Z49	X50	Y50	Z50	X51	Y51	Z51	
250	1.2500	477.869639	1441.480194	-187.895794	468.276529	1448.214326	-438.027711	442.896365	1490.648176	-311.366093	454.669460	1342.625450	-319.069372	536.765771	1147.868003	-53.832998	692.327607	902.034441	-116.271277	486.160588	1161.790253	-552.012456	672.111799	924.740555	-480.220510	-90.859087	1202.657022	-254.813509	54.110534	1221.164975	-434.523749	91.105806	1198.602391	-116.587019	0.000000	0.000000	-0.000000	123.769428	1145.504018	-168.930063	-54.498385	1244.578423	-214.446678	-68.407402	1253.180071	-287.896087	41.966770	1137.240370	-93.279807	5.049240	1142.431630	-459.871863	137.759484	1014.340368	-98.130176	201.470208	953.525544	-109.923113	230.180939	873.285955	-109.553531	226.333190	971.640762	-129.491092	279.572619	735.213553	-128.609473	251.299088	717.345158	-239.648391	198.763401	633.606489	-100.263388	167.180862	551.842308	-114.911740	97.694602	500.568305	-119.692475	193.666859	536.840677	-139.451592	20.685431	364.597412	-123.226697	44.243355	364.687315	-209.872813	-54.012381	361.590402	-167.691851	212.177943	210.066953	-158.364597	139.843318	220.596458	-107.001656	74.557245	1076.891462	-470.627574	158.651701	1055.080501	-478.305625	176.151820	1085.832039	-471.848899	220.867354	991.664980	-480.665445	351.962329	891.703266	-469.492242	392.377846	875.774545	-360.441936	343.811632	771.050926	-489.910416	340.916648	686.890513	-467.200508	297.353854	610.209348	-462.671084	370.618090	682.411077	-440.770593	248.253049	472.482426	-457.268085	245.290268	473.884081	-369.823761	169.177599	442.642348	-414.881013	471.821789	451.852900	-421.938530	401.614353	428.578765	-371.152478	402.823839	410.452903	-481.934742	-186.133122	937.568683	-286.333026	-17.932864	79.111958	-484.891552	-18.252686	79.212194	-83.865637	
251	1.2550	477.518132	1441.354686	-188.005998	467.925884	1448.203808	-438.192342	442.303397	1490.483914	-311.263157	454.351845	1342.446382	-319.095864	536.240453	1147.598257	-53.740267	692.169194	902.035166	-116.149451	485.343056	1161.580620	-551.997160	671.834713	924.832796	-480.169355	-90.641413	1201.713902	-254.089020	54.309953	1220.273612	-434.478883	90.985750	1197.876780	-117.250321	0.000000	0.000000	-0.000000	123.844791	1144.529498	-169.095565	-54.703214	1243.367041	-214.289352	-68.420899	1251.891993	-287.841183	42.265595	1136.296712	-93.156985	5.746151	1141.582290	-459.806613	138.898365	1014.195114	-98.070574	202.999024	953.723379	-109.885377	232.305269	873.761189	-109.407552	227.607931	971.915457	-129.678674	282.155374	735.947335	-128.155161	254.041462	717.940945	-239.243490	200.709068	634.937941	-99.839781	168.606538	553.194531	-114.550064	98.693108	502.514357	-119.506197	194.843937	538.128957	-139.165363	20.652120	367.191708	-123.122756	44.229299	367.121102	-209.652405	-54.041864	364.768264	-167.675567	210.989123	211.202813	-158.369464	138.694463	222.208279	-107.005881	75.269150	1076.203973	-470.662977	159.364932	1054.407679	-478.285297	176.755112	1084.980211	-471.469912	221.532774	990.990004	-480.737082	352.723654	890.957776	-469.510821	393.324937	875.179278	-360.454847	344.846137	770.294925	-489.916440	342.196888	685.992694	-467.331289	298.801182	609.291455	-462.765122	371.927680	681.661703	-440.900800	250.121598	471.351418	-457.251958	247.227424	472.636706	-369.755768	170.954182	441.944693	-414.828325	473.619909	449.275122	-421.892363	403.259039	426.426284	-371.085643	404.413766	408.327119	-481.879668	-186.099152	937.554905	-286.368107	-17.943365	79.101440	-484.892482	-18.253230	79.195577	-83.856039	
252	1.2600	477.281529	1441.195864	-187.988501	467.636719	1448.272777	-438.228613	441.716397	1490.369612	-311.048948	454.121295	1342.296524	-319.083485	535.659114	1147.350099	-53.585356	691.952338	902.032089	-115.979223	484.698916	1161.473305	-551.980171	671.639602	924.973224	-480.138703	-90.405586	1200.583932	-254.158882	54.548776	1219.556160	-434.500300	91.001188	1197.138943	-117.217343	0.000000	0.000000	-0.000000	124.084356	1144.159470	-168.971127	-54.767641	1242.352172	-214.278556	-68.316708	1250.752291	-287.962956	42.525340	1135.394305	-93.116340	6.362947	1140.895437	-459.803839	139.969943	1014.111041	-98.045439	204.483661	954.145233	-109.819031	234.309980	874.310946	-109.166445	228.905218	972.458991	-129.749929	284.584452	736.800577	-127.677061	256.638784	718.700856	-238.865770	202.489146	636.271209	-99.489727	169.918344	554.641848	-114.260864	99.684573	504.501748	-119.329905	196.136721	539.406341	-138.922293	20.606977	369.792486	-123.085864	44.350133	369.605183	-209.567742	-54.071013	367.950826	-167.740818	209.810850	212.407796	-158.357262	137.633597	224.013161	-107.054856	75.969026	1075.547511	-470.724008	160.027062	1053.705990	-478.269308	177.527195	1084.420519	-471.832297	222.172868	990.277019	-480.744092	353.134254	889.840320	-469.055110	394.385290	874.090790	-360.870642	345.747299	769.353346	-489.983635	343.373943	685.152235	-467.426838	300.227037	608.285652	-462.910425	373.188282	680.769386	-441.098843	251.971651	470.044934	-457.330946	249.043488	471.466959	-369.892227	172.638669	441.197206	-415.051784	475.439404	446.635902	-421.801679	404.910211	424.299782	-371.024993	406.018009	406.137164	-481.785547	-185.910108	937.462424	-286.341828	-17.949191	79.087647	-484.885594	-18.249324	79.201776	-83.854036	
253	1.2650	477.066369	1441.091041	-187.922426	467.416792	1448.408394	-438.174435	441.318511	1490.331152	-310.841173	453.911201	1342.217178	-319.101652	534.995221	1147.108993	-53.369213	691.715383	902.052843	-115.784250	484.274804	1161.487817	-551.981231	671.508224	925.086053	-480.095223	-90.187633	1199.534028	-254.311243	54.797742	1218.856836	-434.571564	90.966333	1196.444741	-117.279907	0.000000	0.000000	-0.000000	124.276129	1143.744765	-168.973515	-54.753657	1241.408021	-214.446060	-68.169376	1249.666432	-288.111151	42.762519	1134.698046	-93.141331	7.064668	1140.115370	-459.870067	140.898082	1014.145315	-98.056563	205.671356	954.506834	-109.898375	236.121287	874.929685	-108.969708	229.996830	972.779839	-130.031896	286.791223	737.625859	-127.222139	259.176633	719.474923	-238.456577	204.292451	637.571268	-99.212609	171.158156	556.196850	-113.979294	100.489861	506.552081	-119.342768	197.193199	540.777143	-138.699306	20.449929	372.396042	-123.168898	44.306584	372.057538	-209.550162	-54.139631	371.146304	-167.943742	208.652635	213.790564	-158.328812	136.493140	225.930948	-107.128366	76.567282	1075.015965	-470.800378	160.664795	1053.070766	-478.402971	178.199841	1083.728699	-471.899243	222.764592	989.482728	-480.869372	353.753398	888.939394	-469.054069	394.977216	873.217588	-361.018070	346.671130	768.441438	-490.072889	344.516312	684.175319	-467.602539	301.594542	607.198649	-463.102784	374.400234	679.889339	-441.328506	253.931899	468.624928	-457.513829	250.925214	470.004400	-369.953718	174.375405	440.282189	-415.267649	477.297002	443.908118	-421.636368	406.510554	421.754690	-371.268646	407.639191	403.873340	-481.744717	-185.902287	937.508523	-286.417572	-17.959460	79.090896	-484.891907	-18.242796	79.182973	-83.856650	
